<svg xmlns="http://www.w3.org/2000/svg">
  <symbol id="si-facebook" viewBox="0 0 512 512">
    <path d="M499,256c0-134.2-108.8-243-243-243S13,121.7,13,256s78.5,209.6,184.3,235.9v-161.7h-50.1v-74.2h50.1v-32c0-82.7,37.4-121,118.7-121s42,3,52.9,6.1v67.2c-5.7-.6-15.7-.9-28.1-.9-39.9,0-55.2,15.1-55.2,54.3v26.4h79.4l-13.7,74.2h-65.8v167c120.4-14.5,213.6-116.9,213.6-241.2h0Z"/>
  </symbol>
  <symbol id="si-github" viewBox="0 0 512 512">
    <path d="M175.6,394.4c0,2-2.3,3.5-5.1,3.5-3.2.3-5.5-1.3-5.5-3.5s2.3-3.5,5.1-3.5c2.9-.3,5.5,1.3,5.5,3.5ZM145.1,390c-.7,2,1.3,4.2,4.2,4.8,2.5,1,5.5,0,6.1-2s-1.3-4.2-4.2-5.1c-2.5-.7-5.4.3-6.1,2.3h0ZM188.4,388.3c-2.8.7-4.8,2.5-4.5,4.8.3,2,2.8,3.2,5.8,2.5,2.8-.7,4.8-2.5,4.5-4.5-.3-1.9-2.9-3.1-5.8-2.8ZM252.9,12.9C117,12.9,13,116.1,13,252s68.4,201.7,166.1,234.4c12.5,2.3,17-5.5,17-11.9s-.3-39.6-.3-60.2c0,0-68.6,14.7-83-29.2,0,0-11.2-28.5-27.2-35.9,0,0-22.4-15.4,1.6-15.1,0,0,24.4,2,37.8,25.3,21.5,37.8,57.4,26.9,71.4,20.5,2.3-15.7,8.6-26.6,15.7-33-54.8-6.1-110-14-110-108.3s7.4-40.5,23.1-57.7c-2.5-6.4-10.9-32.6,2.5-66.5,20.5-6.4,67.6,26.5,67.6,26.5,19.6-5.5,40.7-8.3,61.5-8.3s41.9,2.8,61.5,8.3c0,0,47.1-32.9,67.6-26.5,13.4,34,5.1,60.2,2.5,66.5,15.7,17.3,25.3,30.9,25.3,57.7,0,94.6-57.7,102.1-112.5,108.3,9,7.7,16.7,22.4,16.7,45.5,0,33-.3,73.9-.3,81.9s4.5,14.1,17,11.9c98-32.5,164.4-125.5,164.4-234.2S388.8,12.9,252.9,12.9ZM108.2,350.8c-1.3,1-1,3.2.7,5.1,1.6,1.6,3.8,2.3,5.1,1,1.3-1,1-3.2-.7-5.1-1.6-1.6-3.8-2.3-5.1-1ZM97.7,342.9c-.7,1.3.3,2.8,2.3,3.8,1.6,1,3.5.7,4.2-.7.7-1.3-.3-2.8-2.3-3.8-2-.6-3.5-.3-4.2.7ZM129.4,377.8c-1.6,1.3-1,4.2,1.3,6.1,2.3,2.3,5.1,2.5,6.4,1,1.3-1.3.7-4.2-1.3-6.1-2.2-2.3-5.1-2.5-6.4-1ZM118.2,363.4c-1.6,1-1.6,3.5,0,5.8,1.6,2.3,4.2,3.2,5.5,2.3,1.6-1.3,1.6-3.8,0-6.1-1.4-2.3-3.9-3.2-5.5-2h0Z"/>
  </symbol>
  <symbol id="si-instagram" viewBox="0 0 512 512">
    <path d="M256.1,131.3c-69,0-124.6,55.6-124.6,124.6s55.6,124.6,124.6,124.6,124.6-55.6,124.6-124.6-55.6-124.6-124.6-124.6ZM256.1,336.9c-44.6,0-81-36.3-81-81s36.3-81,81-81,81,36.3,81,81-36.4,81-81,81h0ZM414.8,126.2c0,16.2-13,29.1-29.1,29.1s-29.1-13-29.1-29.1,13-29.1,29.1-29.1,29.1,13,29.1,29.1ZM497.3,155.7c-1.8-38.9-10.7-73.4-39.2-101.8-28.4-28.4-62.9-37.3-101.8-39.2-40.1-2.3-160.4-2.3-200.5,0-38.8,1.8-73.3,10.7-101.8,39.1S16.7,116.7,14.8,155.6c-2.3,40.1-2.3,160.4,0,200.5,1.8,38.9,10.7,73.4,39.2,101.8,28.5,28.4,62.9,37.3,101.8,39.2,40.1,2.3,160.4,2.3,200.5,0,38.9-1.8,73.4-10.7,101.8-39.2,28.4-28.4,37.3-62.9,39.2-101.8,2.3-40.1,2.3-160.2,0-200.4h0ZM445.5,399.1c-8.5,21.3-24.8,37.6-46.2,46.2-32,12.7-107.9,9.8-143.2,9.8s-111.3,2.8-143.2-9.8c-21.3-8.5-37.6-24.8-46.2-46.2-12.7-32-9.8-107.9-9.8-143.2s-2.8-111.3,9.8-143.2c8.5-21.3,24.8-37.6,46.2-46.2,32-12.7,107.9-9.8,143.2-9.8s111.3-2.8,143.2,9.8c21.3,8.5,37.6,24.8,46.2,46.2,12.7,32,9.8,107.9,9.8,143.2s2.9,111.3-9.8,143.2Z"/>
  </symbol>
  <symbol id="si-mail" viewBox="0 0 512 512">
    <path d="M16.9,260.2c-22.5,12.9-20.4,47.1,3.6,57.1l139.8,58.3v103c0,18,14.6,32.6,32.6,32.6s18.8-4.3,25-11.8l61.8-74.1,123.5,51.4c18.8,7.9,40.7-4.5,43.8-24.6l63.8-414.7c1.9-12.1-3.4-24.2-13.5-31.1-10.1-6.9-23.2-7.5-33.9-1.4L16.9,260.2h0ZM68.8,285.6L409.2,91.1l-218.9,244.6,1.2,1-122.7-51.1ZM402.8,424.9l-166.1-69.3,213.4-238.5-47.3,307.8Z"/>
  </symbol>
  <symbol id="si-x" viewBox="0 0 512 512">
    <path d="M389.7,47.2h70.9l-154.8,176.9,182.1,240.7h-142.6l-111.7-146-127.7,146H34.9l165.5-189.2L25.9,47.2h146.2l100.9,133.4,116.8-133.4ZM364.8,422.4h39.3L150.7,87.3h-42.2l256.3,335.1Z"/>
  </symbol>
  <symbol id="si-youtube" viewBox="0 0 512 512">
    <path d="M500.4,132.9c-5.9-22.2-23.1-39.5-45.1-45.4-39.8-10.7-199.3-10.7-199.3-10.7,0,0-159.5,0-199.3,10.7-22,5.9-39.2,23.2-45.1,45.4C1,172.9,1,256.4,1,256.4c0,0,0,83.5,10.6,123.6,5.9,22.2,23.1,38.8,45.1,44.7,39.8,10.7,199.3,10.7,199.3,10.7,0,0,159.5,0,199.3-10.7,22-5.9,39.2-22.6,45.1-44.7,10.6-40,10.6-123.6,10.6-123.6,0,0,0-83.5-10.6-123.6h0ZM203.9,332.2v-151.7l133.2,75.9-133.2,75.9h0Z"/>
  </symbol>
</svg>
